<?xml version="1.0" encoding="UTF-8" standalone="no"?>
<svg
   xmlns:dc="http://purl.org/dc/elements/1.1/"
   xmlns:cc="http://creativecommons.org/ns#"
   xmlns:rdf="http://www.w3.org/1999/02/22-rdf-syntax-ns#"
   xmlns:svg="http://www.w3.org/2000/svg"
   xmlns="http://www.w3.org/2000/svg"
   viewBox="0 0 1200 700"
   height="700"
   width="1200"
   xml:space="preserve"
   version="1.1"
   id="svg2"><metadata
     id="metadata8"><rdf:RDF><cc:Work
         rdf:about=""><dc:format>image/svg+xml</dc:format><dc:type
           rdf:resource="http://purl.org/dc/dcmitype/StillImage" /></cc:Work></rdf:RDF></metadata><defs
     id="defs6"><clipPath
       id="clipPath24"
       clipPathUnits="userSpaceOnUse"><path
         id="path26"
         d="M 0,560 960,560 960,0 0,0 0,560 Z" /></clipPath><clipPath
       id="clipPath64"
       clipPathUnits="userSpaceOnUse"><path
         id="path66"
         d="m 98,403.929 196.873,0 0,-181.335 -196.873,0 0,181.335 z" /></clipPath><clipPath
       id="clipPath68"
       clipPathUnits="userSpaceOnUse"><path
         id="path70"
         d="m 98,403.929 196.873,0 0,-181.335 -196.873,0 0,181.335 z" /></clipPath></defs><g
     transform="matrix(1.25,0,0,-1.25,0,700)"
     id="g10"><text
       id="text12"
       style="font-variant:normal;font-weight:normal;font-stretch:normal;font-size:264.36621094px;font-family:'Niagara Engraved';-inkscape-font-specification:NiagaraEngraved-Reg;writing-mode:lr-tb;fill:#5ae581;fill-opacity:1;fill-rule:nonzero;stroke:none"
       transform="matrix(0.79966993,0,0,-1,331.623,217.6699)"><tspan
         id="tspan14"
         y="0"
         x="0 103.89592 176.86099 256.17084 329.13593 404.74466 480.35339 553.31848 625.49042">WeConnect</tspan></text>
<g
       transform="translate(413.6875,402.7778)"
       id="g16"><path
         id="path18"
         style="fill:none;stroke:#528be8;stroke-width:0.25;stroke-linecap:butt;stroke-linejoin:miter;stroke-miterlimit:10;stroke-dasharray:none;stroke-opacity:1"
         d="m 0,0 -15.897,0 0,-4.776 5.265,0 -7.123,-150.514 -8.258,155.29 -16.929,0 -8.052,-155.29 -7.845,150.514 5.265,0 0,4.776 -27.458,0 0,-4.776 5.264,0 11.045,-180.332 16.93,0 7.638,152.579 7.948,-152.579 16.929,0 9.91,180.332 5.368,0 L 0,0 Z m -27.974,-180.332 -9.91,175.556 4.232,0 9.91,-175.556 -4.232,0 z m -32.516,0 -11.046,175.556 4.233,0 11.045,-175.556 -4.232,0 z" /></g><g
       id="g20"><g
         clip-path="url(#clipPath24)"
         id="g22"><g
           transform="translate(467.7778,259.752)"
           id="g28"><path
             id="path30"
             style="fill:none;stroke:#528be8;stroke-width:0.25;stroke-linecap:butt;stroke-linejoin:miter;stroke-miterlimit:10;stroke-dasharray:none;stroke-opacity:1"
             d="m 0,0 -16.516,0 0,-28.012 c 0,-7.057 -2.444,-10.585 -7.329,-10.585 -4.955,0 -7.432,3.528 -7.432,10.585 l 0,52.538 31.277,0 0,45.18 c 0,7.571 -2.255,13.961 -6.762,19.169 -4.508,5.206 -10.203,7.81 -17.083,7.81 -6.883,0 -12.594,-2.604 -17.136,-7.81 -4.541,-5.208 -6.812,-11.598 -6.812,-19.169 l 0,-86.101 c 0,-7.573 2.271,-13.962 6.812,-19.168 4.542,-5.208 10.253,-7.81 17.136,-7.81 6.88,0 12.575,2.602 17.083,7.81 C -2.255,-30.357 0,-23.968 0,-16.395 L 0,0 Z m -12.491,29.302 0,48.407 c 0,5.764 -1.135,10.153 -3.406,13.166 5.092,-4.045 7.639,-9.681 7.639,-16.91 l 0,-44.663 -4.233,0 z m -18.786,0 0,52.021 c 0,7.055 2.477,10.585 7.432,10.585 4.885,0 7.329,-3.53 7.329,-10.585 l 0,-52.021 -14.761,0 z m -12.491,-47.632 0,89.972 c 0,6.884 2.339,12.348 7.019,16.394 -1.857,-3.356 -2.787,-7.79 -2.787,-13.296 l 0,-96.169 c 0,-5.508 0.93,-9.939 2.787,-13.296 -4.68,4.044 -7.019,9.509 -7.019,16.395 z m 27.871,-19.234 c 2.271,3.011 3.406,7.4 3.406,13.167 l 0,19.621 4.233,0 0,-15.878 c 0,-7.229 -2.547,-12.867 -7.639,-16.91 z" /></g><g
           transform="translate(530.1255,273.1763)"
           id="g32"><path
             id="path34"
             style="fill:none;stroke:#528be8;stroke-width:0.25;stroke-linecap:butt;stroke-linejoin:miter;stroke-miterlimit:10;stroke-dasharray:none;stroke-opacity:1"
             d="m 0,0 -16.929,0 0,-41.436 c 0,-2.927 -0.826,-5.422 -2.477,-7.487 -1.652,-2.066 -3.649,-3.098 -5.988,-3.098 -2.339,0 -4.335,1.032 -5.986,3.098 -1.652,2.065 -2.477,4.56 -2.477,7.487 l 0,156.967 c 0,2.925 0.825,5.422 2.477,7.487 1.651,2.065 3.647,3.098 5.986,3.098 2.339,0 4.336,-1.033 5.988,-3.098 1.651,-2.065 2.477,-4.562 2.477,-7.487 l 0,-41.436 16.929,0 0,29.819 c 0,7.4 -2.478,13.747 -7.432,19.04 -4.955,5.292 -10.942,7.939 -17.962,7.939 -6.951,0 -12.92,-2.647 -17.909,-7.939 -4.99,-5.293 -7.484,-11.64 -7.484,-19.04 l 0,-133.733 c 0,-7.401 2.494,-13.747 7.484,-19.04 4.989,-5.292 10.958,-7.938 17.909,-7.938 7.02,0 13.007,2.646 17.962,7.938 C -2.478,-43.566 0,-37.22 0,-29.819 L 0,0 Z m -12.696,78.742 0,33.046 c 0,5.421 -1.136,9.766 -3.407,13.038 5.092,-4.047 7.639,-9.597 7.639,-16.653 l 0,-29.431 -4.232,0 z m -33.859,-110.496 0,137.475 c 0,6.626 2.339,11.918 7.02,15.877 -1.859,-3.356 -2.787,-7.573 -2.787,-12.65 l 0,-143.801 c 0,-5.163 0.928,-9.423 2.787,-12.779 -4.681,4.044 -7.02,9.337 -7.02,15.878 z m 30.452,-18.976 c 2.271,3.27 3.407,7.571 3.407,12.908 l 0,33.046 4.232,0 0,-29.303 c 0,-7.056 -2.547,-12.607 -7.639,-16.651 z" /></g><g
           transform="translate(589.48,329.4575)"
           id="g36"><path
             id="path38"
             style="fill:none;stroke:#528be8;stroke-width:0.25;stroke-linecap:butt;stroke-linejoin:miter;stroke-miterlimit:10;stroke-dasharray:none;stroke-opacity:1"
             d="m 0,0 c 0,7.572 -2.255,13.961 -6.761,19.169 -4.509,5.206 -10.203,7.81 -17.084,7.81 -6.882,0 -12.593,-2.604 -17.135,-7.81 C -45.522,13.961 -47.793,7.572 -47.793,0 l 0,-86.1 c 0,-7.573 2.271,-13.963 6.813,-19.169 4.542,-5.208 10.253,-7.81 17.135,-7.81 6.881,0 12.575,2.602 17.084,7.81 C -2.255,-100.063 0,-93.673 0,-86.1 L 0,0 Z m -15.896,-107.27 c 2.27,3.012 3.406,7.4 3.406,13.167 l 0,102.106 c 0,5.765 -1.136,10.154 -3.406,13.167 5.091,-4.046 7.638,-9.681 7.638,-16.91 l 0,-94.62 c 0,-7.228 -2.547,-12.866 -7.638,-16.91 z m -7.949,-1.032 c -4.955,0 -7.432,3.527 -7.432,10.585 l 0,109.335 c 0,7.055 2.477,10.585 7.432,10.585 4.886,0 7.329,-3.53 7.329,-10.585 l 0,-109.335 c 0,-7.058 -2.443,-10.585 -7.329,-10.585 z m -19.923,20.266 0,89.973 c 0,6.883 2.339,12.347 7.02,16.393 -1.858,-3.356 -2.787,-7.789 -2.787,-13.296 l 0,-96.168 c 0,-5.508 0.929,-9.94 2.787,-13.296 -4.681,4.044 -7.02,9.509 -7.02,16.394 z" /></g><g
           transform="translate(654.0991,222.4463)"
           id="g40"><path
             id="path42"
             style="fill:none;stroke:#528be8;stroke-width:0.25;stroke-linecap:butt;stroke-linejoin:miter;stroke-miterlimit:10;stroke-dasharray:none;stroke-opacity:1"
             d="m 0,0 -5.265,0 0,109.722 c 0,16.178 -5.986,24.268 -17.961,24.268 -5.093,0 -9.187,-1.678 -12.284,-5.034 l 0,3.743 -21.78,0 0,-4.776 5.368,0 0,-127.923 -5.368,0 0,-4.776 27.148,0 0,4.776 -5.368,0 0,124.18 c 2.408,3.011 4.955,4.518 7.639,4.518 4.129,0 6.194,-3.357 6.194,-10.069 l 0,-123.405 L 0,-4.776 0,0 Z m -17.755,0 0,116.563 c 0,5.852 -0.964,9.982 -2.89,12.393 4.749,-2.411 7.123,-7.316 7.123,-14.716 l 0,-114.24 -4.233,0 z m -30.141,127.923 4.232,0 0,-127.923 -4.232,0 0,127.923 z" /></g><g
           transform="translate(714.5894,222.4463)"
           id="g44"><path
             id="path46"
             style="fill:none;stroke:#528be8;stroke-width:0.25;stroke-linecap:butt;stroke-linejoin:miter;stroke-miterlimit:10;stroke-dasharray:none;stroke-opacity:1"
             d="m 0,0 -5.265,0 0,109.722 c 0,16.178 -5.986,24.268 -17.961,24.268 -5.093,0 -9.187,-1.678 -12.284,-5.034 l 0,3.743 -21.78,0 0,-4.776 5.368,0 0,-127.923 -5.368,0 0,-4.776 27.148,0 0,4.776 -5.368,0 0,124.18 c 2.408,3.011 4.955,4.518 7.639,4.518 4.129,0 6.194,-3.357 6.194,-10.069 l 0,-123.405 L 0,-4.776 0,0 Z m -17.755,0 0,116.563 c 0,5.852 -0.964,9.982 -2.89,12.393 4.749,-2.411 7.123,-7.316 7.123,-14.716 l 0,-114.24 -4.233,0 z m -30.141,127.923 4.232,0 0,-127.923 -4.232,0 0,127.923 z" /></g><g
           transform="translate(768.7827,259.752)"
           id="g48"><path
             id="path50"
             style="fill:none;stroke:#528be8;stroke-width:0.25;stroke-linecap:butt;stroke-linejoin:miter;stroke-miterlimit:10;stroke-dasharray:none;stroke-opacity:1"
             d="m 0,0 -16.516,0 0,-28.012 c 0,-7.057 -2.443,-10.585 -7.329,-10.585 -4.955,0 -7.432,3.528 -7.432,10.585 l 0,52.538 31.277,0 0,45.18 c 0,7.571 -2.255,13.961 -6.761,19.169 -4.509,5.206 -10.203,7.81 -17.084,7.81 -6.882,0 -12.593,-2.604 -17.135,-7.81 -4.542,-5.208 -6.813,-11.598 -6.813,-19.169 l 0,-86.101 c 0,-7.573 2.271,-13.962 6.813,-19.168 4.542,-5.208 10.253,-7.81 17.135,-7.81 6.881,0 12.575,2.602 17.084,7.81 C -2.255,-30.357 0,-23.968 0,-16.395 L 0,0 Z m -12.49,29.302 0,48.407 c 0,5.764 -1.136,10.153 -3.406,13.166 5.091,-4.045 7.638,-9.681 7.638,-16.91 l 0,-44.663 -4.232,0 z m -18.787,0 0,52.021 c 0,7.055 2.477,10.585 7.432,10.585 4.886,0 7.329,-3.53 7.329,-10.585 l 0,-52.021 -14.761,0 z m -12.491,-47.632 0,89.972 c 0,6.884 2.339,12.348 7.02,16.394 -1.858,-3.356 -2.787,-7.79 -2.787,-13.296 l 0,-96.169 c 0,-5.508 0.929,-9.939 2.787,-13.296 -4.681,4.044 -7.02,9.509 -7.02,16.395 z m 27.872,-19.234 c 2.27,3.011 3.406,7.4 3.406,13.167 l 0,19.621 4.232,0 0,-15.878 c 0,-7.229 -2.547,-12.867 -7.638,-16.91 z" /></g><g
           transform="translate(827.105,259.752)"
           id="g52"><path
             id="path54"
             style="fill:none;stroke:#528be8;stroke-width:0.25;stroke-linecap:butt;stroke-linejoin:miter;stroke-miterlimit:10;stroke-dasharray:none;stroke-opacity:1"
             d="m 0,0 -16.516,0 0,-28.012 c 0,-7.057 -2.443,-10.585 -7.329,-10.585 -4.955,0 -7.432,3.528 -7.432,10.585 l 0,109.335 c 0,7.055 2.477,10.585 7.432,10.585 4.886,0 7.329,-3.53 7.329,-10.585 l 0,-28.011 16.516,0 0,16.394 c 0,7.571 -2.255,13.961 -6.761,19.169 -4.509,5.206 -10.203,7.81 -17.084,7.81 -6.882,0 -12.593,-2.604 -17.135,-7.81 -4.542,-5.208 -6.813,-11.598 -6.813,-19.169 l 0,-86.101 c 0,-7.573 2.271,-13.962 6.813,-19.168 4.542,-5.208 10.253,-7.81 17.135,-7.81 6.881,0 12.575,2.602 17.084,7.81 C -2.255,-30.357 0,-23.968 0,-16.395 L 0,0 Z m -12.49,58.088 0,19.621 c 0,5.764 -1.136,10.153 -3.406,13.166 5.091,-4.045 7.638,-9.681 7.638,-16.91 l 0,-15.877 -4.232,0 z m -31.278,-76.418 0,89.972 c 0,6.884 2.339,12.348 7.02,16.394 -1.858,-3.356 -2.787,-7.79 -2.787,-13.296 l 0,-96.169 c 0,-5.508 0.929,-9.939 2.787,-13.296 -4.681,4.044 -7.02,9.509 -7.02,16.395 z m 27.872,-19.234 c 2.27,3.011 3.406,7.4 3.406,13.167 l 0,19.621 4.232,0 0,-15.878 c 0,-7.229 -2.547,-12.867 -7.638,-16.91 z" /></g><g
           transform="translate(867.8794,222.4463)"
           id="g56"><path
             id="path58"
             style="fill:none;stroke:#528be8;stroke-width:0.25;stroke-linecap:butt;stroke-linejoin:miter;stroke-miterlimit:10;stroke-dasharray:none;stroke-opacity:1"
             d="m 0,0 -5.265,0 c -4.955,0 -7.431,3.527 -7.431,10.585 l 0,117.338 11.87,0 0,4.776 -11.87,0 0,47.633 -16.413,-9.294 0,-38.339 -5.369,0 0,-4.776 5.369,0 0,-105.721 c 0,-7.486 2.253,-13.856 6.76,-19.104 4.507,-5.25 10.203,-7.874 17.084,-7.874 L 0,-4.776 0,0 Z m -25.187,20.396 0,147.415 4.232,2.452 0,-153.095 c 0,-5.508 0.93,-9.897 2.787,-13.167 -4.681,3.958 -7.019,9.424 -7.019,16.395 z" /></g><g
           id="g60"><g
             id="g62" /><g
             id="g72"><g
               style="opacity:0.69000202"
               id="g74"
               clip-path="url(#clipPath64)"><g
                 id="g76"><g
                   id="g78" /><g
                   id="g80"><g
                     style="opacity:0.619995"
                     id="g82"
                     clip-path="url(#clipPath68)"><g
                       id="g84"
                       transform="translate(196.5,224.4454)"><path
                         id="path86"
                         style="fill:#3ea9c6;fill-opacity:1;fill-rule:nonzero;stroke:none"
                         d="m 0,0 c -54,0 -97.873,39.946 -97.873,89.221 0,49.276 43.873,89.222 97.873,89.222 L 0,0 Z" /></g><g
                       id="g88"
                       transform="translate(196.5,224.4454)"><path
                         id="path90"
                         style="fill:none;stroke:#000000;stroke-width:1;stroke-linecap:butt;stroke-linejoin:miter;stroke-miterlimit:10;stroke-dasharray:none;stroke-opacity:1"
                         d="m 0,0 c -54,0 -97.873,39.946 -97.873,89.221 0,49.276 43.873,89.222 97.873,89.222 L 0,0 Z" /></g><g
                       id="g92"
                       transform="translate(196.5,224.4454)"><path
                         id="path94"
                         style="fill:#3ea9c6;fill-opacity:1;fill-rule:nonzero;stroke:none"
                         d="m 0,0 c -50,0 -89.221,39.946 -89.221,89.221 0,49.276 39.221,89.222 89.221,89.222 L 0,0 Z" /></g><g
                       id="g96"
                       transform="translate(196.5,224.4454)"><path
                         id="path98"
                         style="fill:none;stroke:#000000;stroke-width:1;stroke-linecap:butt;stroke-linejoin:miter;stroke-miterlimit:10;stroke-dasharray:none;stroke-opacity:1"
                         d="m 0,0 c -50,0 -89.221,39.946 -89.221,89.221 0,49.276 39.221,89.222 89.221,89.222 L 0,0 Z" /></g><g
                       id="g100"
                       transform="translate(196.5,403.4287)"><path
                         id="path102"
                         style="fill:#3ea9c6;fill-opacity:1;fill-rule:nonzero;stroke:none"
                         d="m 0,0 0,-178.443 c -45,0 -78.947,39.946 -78.947,89.222 C -78.947,-39.946 -45,0 0,0" /></g><g
                       id="g104"
                       transform="translate(196.5,403.4287)"><path
                         id="path106"
                         style="fill:none;stroke:#000000;stroke-width:1;stroke-linecap:butt;stroke-linejoin:miter;stroke-miterlimit:10;stroke-dasharray:none;stroke-opacity:1"
                         d="m 0,0 0,-178.443 c -45,0 -78.947,39.946 -78.947,89.222 C -78.947,-39.946 -45,0 0,0 Z" /></g><g
                       id="g108"
                       transform="translate(132.8302,313.3963)"><path
                         id="path110"
                         style="fill:#3ea9c6;fill-opacity:1;fill-rule:nonzero;stroke:none"
                         d="m 0,0 c 0,49.16 27.962,89.011 62.455,89.011 0,0 2.704,-174.717 0,-178.022 C 27.962,-89.011 0,-49.16 0,0" /></g><g
                       id="g112"
                       transform="translate(132.8302,313.3963)"><path
                         id="path114"
                         style="fill:none;stroke:#000000;stroke-width:1;stroke-linecap:butt;stroke-linejoin:miter;stroke-miterlimit:10;stroke-dasharray:none;stroke-opacity:1"
                         d="m 0,0 c 0,49.16 27.962,89.011 62.455,89.011 0,0 2.704,-174.717 0,-178.022 C 27.962,-89.011 0,-49.16 0,0 Z" /></g><g
                       id="g116"
                       transform="translate(196.5,402.08)"><path
                         id="path118"
                         style="fill:#3ea9c6;fill-opacity:1;fill-rule:nonzero;stroke:none"
                         d="m 0,0 0,-178.443 c -23,0 -39.206,39.946 -39.206,89.222 C -39.206,-39.946 -23,0 0,0" /></g><g
                       id="g120"
                       transform="translate(196.5,402.08)"><path
                         id="path122"
                         style="fill:none;stroke:#000000;stroke-width:1;stroke-linecap:butt;stroke-linejoin:miter;stroke-miterlimit:10;stroke-dasharray:none;stroke-opacity:1"
                         d="m 0,0 0,-178.443 c -23,0 -39.206,39.946 -39.206,89.222 C -39.206,-39.946 -23,0 0,0 Z" /></g><g
                       id="g124"
                       transform="translate(196.5,224.4454)"><path
                         id="path126"
                         style="fill:#3ea9c6;fill-opacity:1;fill-rule:nonzero;stroke:none"
                         d="M 0,0 C 53,0 97.873,39.946 97.873,89.221 97.873,138.497 53,178.443 0,178.443 L 0,0 Z" /></g><g
                       id="g128"
                       transform="translate(196.5,224.4454)"><path
                         id="path130"
                         style="fill:none;stroke:#000000;stroke-width:1;stroke-linecap:butt;stroke-linejoin:miter;stroke-miterlimit:10;stroke-dasharray:none;stroke-opacity:1"
                         d="M 0,0 C 53,0 97.873,39.946 97.873,89.221 97.873,138.497 53,178.443 0,178.443 L 0,0 Z" /></g><g
                       id="g132"
                       transform="translate(196.5,224.4454)"><path
                         id="path134"
                         style="fill:#3ea9c6;fill-opacity:1;fill-rule:nonzero;stroke:none"
                         d="M 0,0 C 49,0 89.221,39.946 89.221,89.221 89.221,138.497 49,178.443 0,178.443 L 0,0 Z" /></g><g
                       id="g136"
                       transform="translate(196.5,224.4454)"><path
                         id="path138"
                         style="fill:none;stroke:#000000;stroke-width:1;stroke-linecap:butt;stroke-linejoin:miter;stroke-miterlimit:10;stroke-dasharray:none;stroke-opacity:1"
                         d="M 0,0 C 49,0 89.221,39.946 89.221,89.221 89.221,138.497 49,178.443 0,178.443 L 0,0 Z" /></g><g
                       id="g140"
                       transform="translate(196.5,403.4287)"><path
                         id="path142"
                         style="fill:#3ea9c6;fill-opacity:1;fill-rule:nonzero;stroke:none"
                         d="m 0,0 0,-178.443 c 42,0 78.947,39.946 78.947,89.222 C 78.947,-39.946 42,0 0,0" /></g><g
                       id="g144"
                       transform="translate(196.5,403.4287)"><path
                         id="path146"
                         style="fill:none;stroke:#000000;stroke-width:1;stroke-linecap:butt;stroke-linejoin:miter;stroke-miterlimit:10;stroke-dasharray:none;stroke-opacity:1"
                         d="m 0,0 0,-178.443 c 42,0 78.947,39.946 78.947,89.222 C 78.947,-39.946 42,0 0,0 Z" /></g><g
                       id="g148"
                       transform="translate(258.2808,313.3963)"><path
                         id="path150"
                         style="fill:#3ea9c6;fill-opacity:1;fill-rule:nonzero;stroke:none"
                         d="m 0,0 c 0,49.16 -27.962,89.011 -62.455,89.011 0,0 -2.704,-174.717 0,-178.022 C -27.962,-89.011 0,-49.16 0,0" /></g><g
                       id="g152"
                       transform="translate(258.2808,313.3963)"><path
                         id="path154"
                         style="fill:none;stroke:#000000;stroke-width:1;stroke-linecap:butt;stroke-linejoin:miter;stroke-miterlimit:10;stroke-dasharray:none;stroke-opacity:1"
                         d="m 0,0 c 0,49.16 -27.962,89.011 -62.455,89.011 0,0 -2.704,-174.717 0,-178.022 C -27.962,-89.011 0,-49.16 0,0 Z" /></g><g
                       id="g156"
                       transform="translate(196.5,402.08)"><path
                         id="path158"
                         style="fill:#3ea9c6;fill-opacity:1;fill-rule:nonzero;stroke:none"
                         d="m 0,0 0,-178.443 c 21,0 39.206,39.946 39.206,89.222 C 39.206,-39.946 21,0 0,0" /></g><g
                       id="g160"
                       transform="translate(196.5,402.08)"><path
                         id="path162"
                         style="fill:none;stroke:#000000;stroke-width:1;stroke-linecap:butt;stroke-linejoin:miter;stroke-miterlimit:10;stroke-dasharray:none;stroke-opacity:1"
                         d="m 0,0 0,-178.443 c 21,0 39.206,39.946 39.206,89.222 C 39.206,-39.946 21,0 0,0 Z" /></g><g
                       id="g164"
                       transform="translate(196.3063,401.5361)"><path
                         id="path166"
                         style="fill:#3ea9c6;fill-opacity:1;fill-rule:nonzero;stroke:none"
                         d="m 0,0 c 9.706,0 17.574,-39.946 17.574,-89.221 0,-49.276 -7.868,-89.222 -17.574,-89.222 -9.706,0 -17.574,39.946 -17.574,89.222 C -17.574,-39.946 -9.706,0 0,0" /></g><g
                       id="g168"
                       transform="translate(196.3063,401.5361)"><path
                         id="path170"
                         style="fill:none;stroke:#000000;stroke-width:1;stroke-linecap:butt;stroke-linejoin:miter;stroke-miterlimit:10;stroke-dasharray:none;stroke-opacity:1"
                         d="m 0,0 c 9.706,0 17.574,-39.946 17.574,-89.221 0,-49.276 -7.868,-89.222 -17.574,-89.222 -9.706,0 -17.574,39.946 -17.574,89.222 C -17.574,-39.946 -9.706,0 0,0 Z" /></g><g
                       id="g172"
                       transform="translate(293,313.5)"><path
                         id="path174"
                         style="fill:#3ea9c6;fill-opacity:1;fill-rule:nonzero;stroke:#000000;stroke-width:1;stroke-linecap:butt;stroke-linejoin:miter;stroke-miterlimit:10;stroke-dasharray:none;stroke-opacity:1"
                         d="M 0,0 -195,0" /></g><g
                       id="g176"
                       transform="translate(99.8385,333.4818)"><path
                         id="path178"
                         style="fill:#3ea9c6;fill-opacity:1;fill-rule:nonzero;stroke:#000000;stroke-width:1;stroke-linecap:butt;stroke-linejoin:miter;stroke-miterlimit:10;stroke-dasharray:none;stroke-opacity:1"
                         d="M 0,0 C 0,0 92.223,-26.688 191.437,0" /></g><g
                       id="g180"
                       transform="translate(281.6855,356.522)"><path
                         id="path182"
                         style="fill:#3ea9c6;fill-opacity:1;fill-rule:nonzero;stroke:#000000;stroke-width:1;stroke-linecap:butt;stroke-linejoin:miter;stroke-miterlimit:10;stroke-dasharray:none;stroke-opacity:1"
                         d="M 0,0 C -88.798,-35.011 -172.26,0 -172.26,0" /></g><g
                       id="g184"
                       transform="translate(122.5777,373.3899)"><path
                         id="path186"
                         style="fill:#3ea9c6;fill-opacity:1;fill-rule:nonzero;stroke:#000000;stroke-width:1;stroke-linecap:butt;stroke-linejoin:miter;stroke-miterlimit:10;stroke-dasharray:none;stroke-opacity:1"
                         d="M 0,0 C 0,0 61.679,-30.58 148.303,0" /></g><g
                       id="g188"
                       transform="translate(142.7588,388.9607)"><path
                         id="path190"
                         style="fill:#3ea9c6;fill-opacity:1;fill-rule:nonzero;stroke:#000000;stroke-width:1;stroke-linecap:butt;stroke-linejoin:miter;stroke-miterlimit:10;stroke-dasharray:none;stroke-opacity:1"
                         d="M 0,0 C 0,0 46.728,-23.12 105.593,0" /></g><g
                       id="g192"
                       transform="translate(98.757,293.8261)"><path
                         id="path194"
                         style="fill:#3ea9c6;fill-opacity:1;fill-rule:nonzero;stroke:#000000;stroke-width:1;stroke-linecap:butt;stroke-linejoin:miter;stroke-miterlimit:10;stroke-dasharray:none;stroke-opacity:1"
                         d="M 0,0 C 0,0 92.223,26.688 191.437,0" /></g><g
                       id="g196"
                       transform="translate(108.344,270.7859)"><path
                         id="path198"
                         style="fill:#3ea9c6;fill-opacity:1;fill-rule:nonzero;stroke:#000000;stroke-width:1;stroke-linecap:butt;stroke-linejoin:miter;stroke-miterlimit:10;stroke-dasharray:none;stroke-opacity:1"
                         d="M 0,0 C 0,0 83.462,35.01 172.26,0" /></g><g
                       id="g200"
                       transform="translate(121.4962,253.9181)"><path
                         id="path202"
                         style="fill:#3ea9c6;fill-opacity:1;fill-rule:nonzero;stroke:#000000;stroke-width:1;stroke-linecap:butt;stroke-linejoin:miter;stroke-miterlimit:10;stroke-dasharray:none;stroke-opacity:1"
                         d="M 0,0 C 0,0 61.679,30.58 148.303,0" /></g><g
                       id="g204"
                       transform="translate(141.6773,238.3473)"><path
                         id="path206"
                         style="fill:#3ea9c6;fill-opacity:1;fill-rule:nonzero;stroke:#000000;stroke-width:1;stroke-linecap:butt;stroke-linejoin:miter;stroke-miterlimit:10;stroke-dasharray:none;stroke-opacity:1"
                         d="M 0,0 C 0,0 46.728,23.12 105.593,0" /></g><g
                       id="g208"
                       transform="translate(178.234,401.5361)"><path
                         id="path210"
                         style="fill:#3ea9c6;fill-opacity:1;fill-rule:nonzero;stroke:#000000;stroke-width:1;stroke-linecap:butt;stroke-linejoin:miter;stroke-miterlimit:10;stroke-dasharray:none;stroke-opacity:1"
                         d="M 0,0 C 0,0 22.191,-6.759 37.195,0" /></g><g
                       id="g212"
                       transform="translate(215.4291,227.6598)"><path
                         id="path214"
                         style="fill:#3ea9c6;fill-opacity:1;fill-rule:nonzero;stroke:#000000;stroke-width:1;stroke-linecap:butt;stroke-linejoin:miter;stroke-miterlimit:10;stroke-dasharray:none;stroke-opacity:1"
                         d="M 0,0 C 0,0 -22.191,6.759 -37.195,0" /></g></g></g></g></g></g></g></g></g></g></svg>